HIERARCHY
ROOT Hips
{
	OFFSET 0.000000 0.000000 0.000000
	CHANNELS 6 Xposition Yposition Zposition Zrotation Yrotation Xrotation 
	JOINT LHipJoint
	{
		OFFSET 0.000000 0.000000 0.000000
		CHANNELS 3 Zrotation Yrotation Xrotation
		JOINT LeftUpLeg
		{
			OFFSET 8.178360 -10.767780 5.035740
			CHANNELS 3 Zrotation Yrotation Xrotation
			JOINT LeftLeg
			{
				OFFSET 14.688660 -40.356780 0.000000
				CHANNELS 3 Zrotation Yrotation Xrotation
				JOINT LeftFoot
				{
					OFFSET 15.373200 -42.237540 0.000000
					CHANNELS 3 Zrotation Yrotation Xrotation
					JOINT LeftToeBase
					{
						OFFSET 0.945840 -2.598660 13.935300
						CHANNELS 3 Zrotation Yrotation Xrotation
						End Site
						{
							OFFSET 0.000000 0.000000 0.000000
						}
					}
				}
			}
		}
	}
	JOINT RHipJoint
	{
		OFFSET 0.000000 0.000000 0.000000
		CHANNELS 3 Zrotation Yrotation Xrotation
		JOINT RightUpLeg
		{
			OFFSET -7.833120 -10.767780 5.035740
			CHANNELS 3 Zrotation Yrotation Xrotation
			JOINT RightLeg
			{
				OFFSET -15.255180 -41.913300 0.000000
				CHANNELS 3 Zrotation Yrotation Xrotation
				JOINT RightFoot
				{
					OFFSET -15.409560 -42.337380 0.000000
					CHANNELS 3 Zrotation Yrotation Xrotation
					JOINT RightToeBase
					{
						OFFSET -0.988380 -2.715540 14.178900
						CHANNELS 3 Zrotation Yrotation Xrotation
						End Site
						{
							OFFSET 0.000000 0.000000 0.000000
						}
					}
				}
			}
		}
	}
	JOINT LowerBack
	{
		OFFSET 0.000000 0.000000 0.000000
		CHANNELS 3 Zrotation Yrotation Xrotation
		JOINT Spine
		{
			OFFSET 0.169620 12.213540 -1.160280
			CHANNELS 3 Zrotation Yrotation Xrotation
			JOINT Spine1
			{
				OFFSET 0.340320 12.293100 -0.256500
				CHANNELS 3 Zrotation Yrotation Xrotation
				JOINT Neck
				{
					OFFSET 0.000000 0.000000 0.000000
					CHANNELS 3 Zrotation Yrotation Xrotation
					JOINT Neck1
					{
						OFFSET -0.325020 10.477440 1.032120
						CHANNELS 3 Zrotation Yrotation Xrotation
						JOINT Head
						{
							OFFSET 0.624420 10.568160 -0.743820
							CHANNELS 3 Zrotation Yrotation Xrotation
							End Site
							{
								OFFSET 0.000000 0.000000 0.000000
							}
						}
					}
				}
				JOINT LeftShoulder
				{
					OFFSET 0.000000 0.000000 0.000000
					CHANNELS 3 Zrotation Yrotation Xrotation
					JOINT LeftArm
					{
						OFFSET 20.174460 7.205340 -1.867260
						CHANNELS 3 Zrotation Yrotation Xrotation
						JOINT LeftForeArm
						{
							OFFSET 29.898000 -0.000000 -0.000000
							CHANNELS 3 Zrotation Yrotation Xrotation
							JOINT LeftHand
							{
								OFFSET 20.901360 -0.000000 -0.000000
								CHANNELS 3 Zrotation Yrotation Xrotation
								JOINT LeftFingerBase
								{
									OFFSET 0.000000 0.000000 0.000000
									CHANNELS 3 Zrotation Yrotation Xrotation
									JOINT LeftHandIndex1
									{
										OFFSET 4.291560 -0.000000 -0.000000
										CHANNELS 3 Zrotation Yrotation Xrotation
										End Site
										{
											OFFSET 0.000000 0.000000 0.000000
										}
									}
								}
								JOINT LThumb
								{
									OFFSET 0.000000 0.000000 0.000000
									CHANNELS 3 Zrotation Yrotation Xrotation
									End Site
									{
										OFFSET 0.000000 0.000000 0.000000
									}
								}
							}
						}
					}
				}
				JOINT RightShoulder
				{
					OFFSET 0.000000 0.000000 0.000000
					CHANNELS 3 Zrotation Yrotation Xrotation
					JOINT RightArm
					{
						OFFSET -18.819600 8.244300 -2.427900
						CHANNELS 3 Zrotation Yrotation Xrotation
						JOINT RightForeArm
						{
							OFFSET -31.451400 -0.000000 -0.000000
							CHANNELS 3 Zrotation Yrotation Xrotation
							JOINT RightHand
							{
								OFFSET -20.665020 -0.000000 -0.000000
								CHANNELS 3 Zrotation Yrotation Xrotation
								JOINT RightFingerBase
								{
									OFFSET 0.000000 0.000000 0.000000
									CHANNELS 3 Zrotation Yrotation Xrotation
									JOINT RightHandIndex1
									{
										OFFSET -3.735180 -0.000000 -0.000000
										CHANNELS 3 Zrotation Yrotation Xrotation
										End Site
										{
											OFFSET 0.000000 0.000000 0.000000
										}
									}
								}
								JOINT RThumb
								{
									OFFSET 0.000000 0.000000 0.000000
									CHANNELS 3 Zrotation Yrotation Xrotation
									End Site
									{
										OFFSET 0.000000 0.000000 0.000000
									}
								}
							}
						}
					}
				}
			}
		}
	}
}
MOTION
Frames:	4
Frame Time:	0.0333333
-81.978258 107.172228 87.255774 0.861321 50.349005 6.350306 -3.648144 1.196453 2.543650 -16.780615 -6.158684 -8.857280 -0.015888 7.609513 22.902406 0.951958 -4.489101 -4.885718 0.000700 -0.174000 -0.478100 1.697242 -1.008901 1.168863 19.738295 3.934933 -11.382257 -2.142941 -10.084774 30.166639 0.006806 -2.662308 -8.813022 -0.000100 0.059300 -0.162800 -0.890608 0.246449 0.627317 0.924965 0.275397 -0.819637 -0.049874 0.062839 -3.291211 -12.801537 -7.287209 -16.400888 7.295870 -7.483452 18.127817 4.652700 -3.811400 14.034300 -6.496712 -0.541442 -1.846384 -82.483075 6.342023 23.733385 16.325591 -23.468332 -4.151910 -1.365040 -2.552131 1.838093 21.084130 22.440725 9.873800 -7.125000 0.000000 0.000000 -7.905600 56.563500 -2.250900 5.072207 1.436790 -1.233050 85.024895 -5.273840 8.779020 -15.368412 22.967934 -3.377642 0.368301 -0.152243 8.560664 -14.392260 7.462511 -1.984900 7.125000 0.000000 0.000000 8.761500 -22.205800 4.855900 
-82.071144 107.209620 87.258792 0.901393 50.607869 6.396496 -3.650431 1.185906 2.536485 -16.726789 -6.087611 -8.997861 -0.007177 7.621157 22.934339 0.986559 -4.756237 -4.747319 0.001200 -0.226200 -0.621400 1.694824 -1.006520 1.167782 19.795155 3.915300 -11.397032 -2.128657 -10.063471 30.100376 0.056778 -2.881933 -8.853498 -0.000000 0.003600 -0.009900 -0.864990 0.121954 0.706113 0.965456 0.108067 -0.800944 0.013210 -0.019104 -3.296944 -13.162977 -7.358658 -16.405083 7.240274 -7.449084 18.075362 4.702100 -3.846500 14.028900 -6.534224 -0.510292 -1.847394 -82.709172 6.592195 23.359557 16.016258 -23.041930 -3.987352 -1.389169 -2.537003 2.230716 21.018857 22.325502 9.801900 -7.125000 0.000000 0.000000 -7.916000 56.426100 -2.227500 5.087302 1.419098 -1.237605 85.029005 -5.685681 8.819944 -15.055839 22.525734 -3.240415 0.374671 -0.157803 8.777994 -14.500757 7.403660 -1.986400 7.125000 0.000000 0.000000 8.679500 -22.258300 4.798900 
-82.164630 107.186700 87.237684 0.833716 50.538732 6.284834 -3.652715 1.186492 2.528901 -16.670800 -6.234591 -8.970225 0.003028 7.651484 23.019296 0.964089 -4.566089 -4.857177 0.004000 -0.410800 -1.128700 1.692382 -1.010213 1.170253 19.861352 3.882261 -11.372217 -2.114049 -10.038035 30.021333 0.053908 -2.854686 -8.786030 -0.001100 0.210500 -0.578400 -0.892075 0.116226 0.854440 1.066366 0.091089 -0.762546 0.219582 -0.024205 -3.303005 -12.822014 -7.289971 -16.481471 7.240484 -7.460436 18.219287 4.625100 -3.808100 14.089000 -6.524113 -0.490098 -1.856962 -82.991440 6.940964 23.471056 15.936347 -22.936196 -3.948973 -1.371506 -2.560668 2.165248 20.795403 22.489822 9.754700 -7.125000 0.000000 0.000000 -8.250800 56.567500 -2.350900 5.118013 1.390681 -1.246477 84.895493 -5.944768 8.489674 -14.903577 22.312172 -3.174479 0.369971 -0.170013 9.044515 -14.427825 7.613723 -2.033900 7.125000 0.000000 0.000000 8.725600 -22.035500 4.869900 
-82.266558 107.212032 87.205716 0.420938 50.487649 5.999566 -3.641032 1.175982 2.518770 -16.369534 -6.056277 -9.295224 0.044663 7.743998 23.269230 0.971535 -4.552849 -4.891298 0.014400 -0.773700 -2.126300 1.690043 -1.000357 1.169940 20.156283 3.773168 -11.378702 -2.077225 -9.964507 29.812197 0.020499 -2.682925 -8.663059 -0.001000 0.202100 -0.555300 -0.686886 -0.012017 0.821202 1.225518 -0.074802 -0.706886 0.455603 -0.116206 -3.182040 -14.134475 -7.473850 -16.508930 7.627697 -7.296629 18.146431 5.090800 -3.846600 14.150300 -6.574417 -0.432640 -1.852233 -83.388472 6.922362 22.830450 15.692352 -22.570900 -3.816030 -1.363201 -2.545476 2.415130 20.421117 22.272682 9.487500 -7.125000 0.000000 0.000000 -8.570500 56.253500 -2.377600 5.115438 1.422582 -1.221239 84.749847 -6.054082 8.458043 -14.828274 22.202301 -3.139527 0.381229 -0.175019 9.188474 -14.715643 7.636996 -2.083600 7.125000 0.000000 0.000000 8.507200 -21.997700 4.752700 
